<svg width="103.668213" height="98.000000" viewBox="0 0 103.668 98" fill="none" xmlns="http://www.w3.org/2000/svg" xmlns:xlink="http://www.w3.org/1999/xlink">
	<desc>
			Created with Pixso.
	</desc>
	<defs/>
	<path id="Vector" d="M95.9941 0L7.65356 0C3.42188 0 0 3.1582 0 7.06299L0 90.918C0 94.8228 3.42188 98 7.65356 98L95.9941 98C100.226 98 103.668 94.8228 103.668 90.937L103.668 7.06299C103.668 3.1582 100.226 0 95.9941 0ZM30.7561 83.5105L15.3679 83.5105L15.3679 36.731L30.7561 36.731L30.7561 83.5105ZM23.062 30.3569C18.1216 30.3569 14.1328 26.5864 14.1328 21.9351C14.1328 17.2839 18.1216 13.5132 23.062 13.5132C27.9822 13.5132 31.9712 17.2839 31.9712 21.9351C31.9712 26.5671 27.9822 30.3569 23.062 30.3569ZM88.3406 83.5105L72.9727 83.5105L72.9727 60.7715C72.9727 55.3547 72.8713 48.3684 64.9749 48.3684C56.9771 48.3684 55.7622 54.2827 55.7622 60.3887L55.7622 83.5105L40.4143 83.5105L40.4143 36.731L55.1548 36.731L55.1548 43.1238L55.3572 43.1238C57.4021 39.4487 62.4236 35.5632 69.895 35.5632C85.4653 35.5632 88.3406 45.2485 88.3406 57.843L88.3406 83.5105Z" fill="#FAFAFA" fill-opacity="1.000000" fill-rule="nonzero"/>
</svg>
