<svg width="103.679932" height="98.000000" viewBox="0 0 103.68 98" fill="none" xmlns="http://www.w3.org/2000/svg" xmlns:xlink="http://www.w3.org/1999/xlink">
	<desc>
			Created with Pixso.
	</desc>
	<defs/>
	<path id="Vector" d="M0 0L0 98L103.68 98L103.68 0L0 0ZM86.1377 23.2095L80.5835 28.2407C80.0974 28.5906 79.866 29.1594 79.9585 29.7063L79.9585 66.7407C79.866 67.3093 80.0974 67.8782 80.5835 68.2063L86.022 73.2375L86.022 74.353L58.7134 74.353L58.7134 73.2812L64.3372 68.1187C64.8926 67.5938 64.8926 67.4407 64.8926 66.6531L64.8926 36.7063L49.248 74.2437L47.1421 74.2437L28.9285 36.7063L28.9285 61.8625C28.7666 62.9126 29.1599 63.9844 29.9468 64.75L37.26 73.1282L37.26 74.2437L16.4778 74.2437L16.4778 73.1282L23.7908 64.75C24.5776 63.9844 24.9248 62.9126 24.7397 61.8625L24.7397 32.7688C24.8323 31.9595 24.5083 31.1719 23.8604 30.625L17.3572 23.2095L17.3572 22.0938L37.5608 22.0938L53.1592 54.4688L66.8828 22.1157L86.1377 22.1157L86.1377 23.2095Z" fill="#FAFAFA" fill-opacity="1.000000" fill-rule="nonzero"/>
</svg>
