<svg width="103.669922" height="98.000000" viewBox="0 0 103.67 98" fill="none" xmlns="http://www.w3.org/2000/svg" xmlns:xlink="http://www.w3.org/1999/xlink">
	<desc>
			Created with Pixso.
	</desc>
	<defs/>
	<path id="Vector" d="M93.0139 24.4233C93.0796 25.4951 93.0796 26.5671 93.0796 27.6392C93.0796 60.3311 71.7012 98 32.6272 98C20.5894 98 9.40674 93.9419 0 86.8984C1.71045 87.1282 3.35474 87.2046 5.13086 87.2046C15.0635 87.2046 24.2073 83.3 31.509 76.6392C22.168 76.4094 14.3401 69.2891 11.6431 59.489C12.9587 59.7185 14.2744 59.8718 15.6558 59.8718C17.5635 59.8718 19.4712 59.5654 21.2471 59.0298C11.5117 56.7327 4.20972 46.7795 4.20972 34.7593L4.20972 34.4531C7.03833 36.2908 10.3276 37.4392 13.8137 37.592C8.09082 33.1514 4.34131 25.5718 4.34131 16.9966C4.34131 12.4031 5.3938 8.19214 7.2356 4.51709C17.6948 19.5232 33.4165 29.3232 51.0454 30.3953C50.7168 28.5576 50.5193 26.6438 50.5193 24.7297C50.5193 11.1013 59.9917 0 71.7664 0C77.884 0 83.4094 2.98584 87.2908 7.80933C92.0925 6.73755 96.6973 4.67017 100.776 1.8374C99.1968 7.57983 95.842 12.4033 91.4348 15.4656C95.7107 14.9299 99.8547 13.5515 103.67 11.6377C100.776 16.5374 97.158 20.9014 93.0139 24.4233Z" fill="#FAFAFA" fill-opacity="1.000000" fill-rule="nonzero"/>
</svg>
