<svg width="110.147461" height="98.000000" viewBox="0 0 110.147 98" fill="none" xmlns="http://www.w3.org/2000/svg" xmlns:xlink="http://www.w3.org/1999/xlink">
	<desc>
			Created with Pixso.
	</desc>
	<defs/>
	<path id="Vector" d="M109.05 21.1458C109.05 21.1458 107.975 11.5391 104.662 7.3208C100.467 1.76904 95.7766 1.7417 93.6252 1.41528C78.2219 0 55.0952 0 55.0952 0L55.0522 0C55.0522 0 31.9255 0 16.5222 1.41528C14.3708 1.7417 9.68091 1.76904 5.48584 7.3208C2.17285 11.5391 1.11865 21.1458 1.11865 21.1458C1.11865 21.1458 0 32.4399 0 43.7068L0 54.2661C0 65.533 1.09717 76.8269 1.09717 76.8269C1.09717 76.8269 2.17285 86.4338 5.46436 90.6521C9.65942 96.2039 15.1667 96.0134 17.6194 96.6121C26.4397 97.6733 55.0737 98 55.0737 98C55.0737 98 78.2219 97.9456 93.6252 96.5576C95.7766 96.231 100.467 96.2039 104.662 90.6521C107.975 86.4338 109.05 76.8269 109.05 76.8269C109.05 76.8269 110.147 65.5601 110.147 54.2661L110.147 43.7068C110.147 32.4399 109.05 21.1458 109.05 21.1458ZM43.6931 67.0842L43.6931 27.9224L73.4458 47.5713L43.6931 67.0842Z" fill="#FAFAFA" fill-opacity="1.000000" fill-rule="nonzero"/>
</svg>
