<svg width="103.665771" height="97.999512" viewBox="0 0 103.666 97.9995" fill="none" xmlns="http://www.w3.org/2000/svg" xmlns:xlink="http://www.w3.org/1999/xlink">
	<desc>
			Created with Pixso.
	</desc>
	<defs/>
	<path id="Vector" d="M51.8157 0C39.5105 0.00610352 27.6086 4.25464 18.2385 11.9854C8.86841 19.7161 2.64087 30.4253 0.669678 42.198C-1.30151 53.9705 1.11182 66.0388 7.47852 76.2449C13.8452 86.4512 23.75 94.1296 35.4216 97.9072C37.9966 98.373 38.9666 96.8174 38.9666 95.4946C38.9666 94.1719 38.915 90.3369 38.8979 86.144C24.478 89.1804 21.4312 80.2126 21.4312 80.2126C19.0793 74.3892 15.6804 72.8584 15.6804 72.8584C10.9768 69.7471 16.0322 69.8054 16.0322 69.8054C21.2422 70.1631 23.9802 74.9883 23.9802 74.9883C28.5981 82.6667 36.1084 80.4456 39.061 79.1477C39.5244 75.895 40.8721 73.6821 42.3569 72.426C30.8384 71.1614 18.7358 66.8521 18.7358 47.6018C18.6646 42.6094 20.5759 37.7812 24.0747 34.1165C23.5425 32.8521 21.7659 27.7441 24.5811 20.8059C24.5811 20.8059 28.9329 19.4583 38.8379 25.9556C47.3337 23.7036 56.2976 23.7036 64.7935 25.9556C74.6899 19.4583 79.033 20.8059 79.033 20.8059C81.8569 27.7275 80.0803 32.8354 79.5481 34.1165C83.0579 37.7817 84.9734 42.6184 84.8955 47.6184C84.8955 66.9104 72.7673 71.1614 61.2314 72.4009C63.0854 73.9648 64.7419 77.0181 64.7419 81.71C64.7419 88.4319 64.6819 93.8391 64.6819 95.4946C64.6819 96.834 65.6174 98.3979 68.2439 97.9072C79.917 94.1292 89.8228 86.4492 96.1892 76.2415C102.556 66.0334 104.968 53.9634 102.995 42.1897C101.021 30.416 94.7905 19.7068 85.4175 11.9773C76.0442 4.2478 64.1396 0.00219727 51.8328 0L51.8157 0Z" fill="#FAFAFA" fill-opacity="1.000000" fill-rule="evenodd"/>
</svg>
